#tb 0: 1/90000
#tb 1: 1/22050
0,          0,          0,        0,   102144, 0x6edc83de
1,          0,          0,     1484,     5936, 0xea261a29
0,       6000,       6000,        0,   102144, 0xd0534fda
1,       1484,       1484,     1456,     5824, 0x253df061
0,      12000,      12000,        0,   102144, 0x6447911f
1,       2940,       2940,     1484,     5936, 0x603a5bd7
0,      18000,      18000,        0,   102144, 0xf21f3b46
1,       4424,       4424,     1456,     5824, 0x9d283f59
0,      24000,      24000,        0,   102144, 0x0975077a
1,       5880,       5880,     1484,     5936, 0x49323497
0,      30000,      30000,        0,   102144, 0xb9a12d8e
1,       7364,       7364,     1456,     5824, 0x7c299939
0,      36000,      36000,        0,   102144, 0x17413513
1,       8820,       8820,     1484,     5936, 0x9f918e9a
0,      42000,      42000,        0,   102144, 0x1e622a04
1,      10304,      10304,     1456,     5824, 0x1226b534
0,      48000,      48000,        0,   102144, 0x7489224e
1,      11760,      11760,     1484,     5936, 0xdd159326
0,      54000,      54000,        0,   102144, 0xae14956e
1,      13244,      13244,     1456,     5824, 0x361ad10f
0,      60000,      60000,        0,   102144, 0x104fd3a0
1,      14700,      14700,     1484,     5936, 0x6ccac9e3
0,      66000,      66000,        0,   102144, 0xea63a940
1,      16184,      16184,     1456,     5824, 0x1861efef
0,      72000,      72000,        0,   102144, 0x0cf81588
1,      17640,      17640,     1484,     5936, 0x5f718eb9
0,      78000,      78000,        0,   102144, 0xe4a5b2fd
1,      19124,      19124,     1456,     5824, 0xd4ca72ba
0,      84000,      84000,        0,   102144, 0x0c9aaf77
1,      20580,      20580,     1484,     5936, 0xbf2b27e6
0,      90000,      90000,        0,   102144, 0x065007d7
1,      22064,      22064,     1456,     5824, 0xcb6f024e
0,      96000,      96000,        0,   102144, 0x54c0c29b
1,      23520,      23520,     1484,     5936, 0x7dfb7e05
0,     102000,     102000,        0,   102144, 0x1114cb8e
1,      25004,      25004,     1456,     5824, 0x80e16f13
0,     108000,     108000,        0,   102144, 0xe4270462
1,      26460,      26460,     1484,     5936, 0x0fb59227
0,     114000,     114000,        0,   102144, 0x61e5b7fd
1,      27944,      27944,     1456,     5824, 0x4d6f1fdb
0,     120000,     120000,        0,   102144, 0x7cbeaca6
1,      29400,      29400,     1484,     5936, 0x505a5103
0,     126000,     126000,        0,   102144, 0xed92daa4
1,      30884,      30884,     1456,     5824, 0x47ef4c13
0,     132000,     132000,        0,   102144, 0xd8654d0d
1,      32340,      32340,     1484,     5936, 0xbe4795fb
0,     138000,     138000,        0,   102144, 0x854e842b
1,      33824,      33824,     1456,     5824, 0xb82cc4ff
0,     144000,     144000,        0,   102144, 0x56407c3a
1,      35280,      35280,     1484,     5936, 0xf7c6ab8d
0,     150000,     150000,        0,   102144, 0x17db3f90
1,      36764,      36764,     1456,     5824, 0x1442f5e0
0,     156000,     156000,        0,   102144, 0x8b133b9a
1,      38220,      38220,     1484,     5936, 0x64659389
0,     162000,     162000,        0,   102144, 0xe4899db9
1,      39704,      39704,     1456,     5824, 0xdd81725c
0,     168000,     168000,        0,   102144, 0x579cf092
1,      41160,      41160,     1484,     5936, 0x7f7c604f
0,     174000,     174000,        0,   102144, 0x19fa5062
1,      42644,      42644,     1456,     5824, 0xafc77beb
0,     180000,     180000,        0,   102144, 0x71339792
1,      44100,      44100,     1484,     5936, 0x24f88e4d
0,     186000,     186000,        0,   102144, 0x970e5c0c
1,      45584,      45584,     1456,     5824, 0xa31956ca
0,     192000,     192000,        0,   102144, 0x84ee616a
1,      47040,      47040,     1484,     5936, 0x958e02b9
0,     198000,     198000,        0,   102144, 0x1d6f9a23
1,      48524,      48524,     1456,     5824, 0xcfc79890
0,     204000,     204000,        0,   102144, 0xc28e19db
1,      49980,      49980,     1484,     5936, 0xc7e788ae
0,     210000,     210000,        0,   102144, 0x0e898967
1,      51464,      51464,     1456,     5824, 0x4b6b1acc
0,     216000,     216000,        0,   102144, 0x52a8b671
1,      52920,      52920,     1484,     5936, 0xa74496dc
0,     222000,     222000,        0,   102144, 0x3f45ea83
1,      54404,      54404,     1456,     5824, 0x719e6171
0,     228000,     228000,        0,   102144, 0x7b0fc603
1,      55860,      55860,     1484,     5936, 0x9346222d
0,     234000,     234000,        0,   102144, 0x14f94469
1,      57344,      57344,     1456,     5824, 0x9e2a876e
0,     240000,     240000,        0,   102144, 0x5b9f37cc
1,      58800,      58800,     1484,     5936, 0xeca6ea64
0,     246000,     246000,        0,   102144, 0xf902b7c7
1,      60284,      60284,     1456,     5824, 0x07d8174f
0,     252000,     252000,        0,   102144, 0x326836e0
1,      61740,      61740,     1484,     5936, 0x2df5aa6b
0,     258000,     258000,        0,   102144, 0x2e4aebba
1,      63224,      63224,     1456,     5824, 0x314e7034
0,     264000,     264000,        0,   102144, 0xd10ae58c
1,      64680,      64680,     1484,     5936, 0x5a328768
0,     270000,     270000,        0,   102144, 0xbd084ecf
1,      66164,      66164,     1456,     5824, 0x32b92446
0,     276000,     276000,        0,   102144, 0xb2157c0a
1,      67620,      67620,     1484,     5936, 0x20ecbc9b
0,     282000,     282000,        0,   102144, 0xd7f158d4
1,      69104,      69104,     1456,     5824, 0x76019c14
0,     288000,     288000,        0,   102144, 0x3cf86462
1,      70560,      70560,     1484,     5936, 0x8c3ef8a6
0,     294000,     294000,        0,   102144, 0x53ecddab
1,      72044,      72044,     1456,     5824, 0xcdaab50b
0,     300000,     300000,        0,   102144, 0xcdaba8ef
1,      73500,      73500,     1484,     5936, 0xb2f87f4f
0,     306000,     306000,        0,   102144, 0xab9ede18
1,      74984,      74984,     1456,     5824, 0x70c26379
0,     312000,     312000,        0,   102144, 0xb6706e79
1,      76440,      76440,     1484,     5936, 0x5691ecfd
0,     318000,     318000,        0,   102144, 0x76371069
1,      77924,      77924,     1456,     5824, 0x61e208fe
0,     324000,     324000,        0,   102144, 0x3a365016
1,      79380,      79380,     1484,     5936, 0x87d1a5e0
0,     330000,     330000,        0,   102144, 0x52177c09
1,      80864,      80864,     1456,     5824, 0x02054cfd
0,     336000,     336000,        0,   102144, 0xc33eb4fb
1,      82320,      82320,     1484,     5936, 0x22ff1c4b
0,     342000,     342000,        0,   102144, 0x16098436
1,      83804,      83804,     1456,     5824, 0xc6d87fef
0,     348000,     348000,        0,   102144, 0x715d6a2b
1,      85260,      85260,     1484,     5936, 0x9028bb3b
0,     354000,     354000,        0,   102144, 0xd3abc960
1,      86744,      86744,     1456,     5824, 0xbadde406
0,     360000,     360000,        0,   102144, 0x7f34b0d4
1,      88200,      88200,     1484,     5936, 0x6e88ddf1
0,     366000,     366000,        0,   102144, 0xe3219b9c
1,      89684,      89684,     1456,     5824, 0x5bb8be6e
0,     372000,     372000,        0,   102144, 0x5fa54f54
1,      91140,      91140,     1484,     5936, 0xe1f8d7fc
0,     378000,     378000,        0,   102144, 0x0fb746cb
1,      92624,      92624,     1456,     5824, 0xc824e388
0,     384000,     384000,        0,   102144, 0xa6bd2da2
1,      94080,      94080,     1484,     5936, 0x654371a9
0,     390000,     390000,        0,   102144, 0x04579119
1,      95564,      95564,     1456,     5824, 0xae6ee9ec
0,     396000,     396000,        0,   102144, 0xda818691
1,      97020,      97020,     1484,     5936, 0x9aa4550d
0,     402000,     402000,        0,   102144, 0xe9d44445
1,      98504,      98504,     1456,     5824, 0xdce210ac
0,     408000,     408000,        0,   102144, 0x94868dc9
1,      99960,      99960,     1484,     5936, 0xb12641c8
0,     414000,     414000,        0,   102144, 0x3ca52ce6
1,     101444,     101444,     1456,     5824, 0x277e014b
0,     420000,     420000,        0,   102144, 0xd7eb4c4f
1,     102900,     102900,     1484,     5936, 0xb0d262de
0,     426000,     426000,        0,   102144, 0xfcdfafca
1,     104384,     104384,     1456,     5824, 0xf94d6f49
0,     432000,     432000,        0,   102144, 0x473a4a5a
1,     105840,     105840,     1484,     5936, 0x3d7848cb
0,     438000,     438000,        0,   102144, 0xe5a5f3cb
1,     107324,     107324,     1456,     5824, 0xe67fc08e
0,     444000,     444000,        0,   102144, 0x34070219
1,     108780,     108780,     1484,     5936, 0x0475e0d6
0,     450000,     450000,        0,   102144, 0x0faa965a
1,     110264,     110264,     1456,     5824, 0x8a9a4a2e
0,     456000,     456000,        0,   102144, 0xe2c6acda
1,     111720,     111720,     1484,     5936, 0x82576204
0,     462000,     462000,        0,   102144, 0xe22776d5
1,     113204,     113204,     1456,     5824, 0x3017b648
0,     468000,     468000,        0,   102144, 0x80d85602
1,     114660,     114660,     1484,     5936, 0xca4c3e04
0,     474000,     474000,        0,   102144, 0x2f3fa190
1,     116144,     116144,     1456,     5824, 0x340077d1
0,     480000,     480000,        0,   102144, 0x70b461b1
1,     117600,     117600,     1484,     5936, 0x805bea6e
0,     486000,     486000,        0,   102144, 0x366c8b27
1,     119084,     119084,     1456,     5824, 0x2cf6c87b
0,     492000,     492000,        0,   102144, 0x65cc0866
1,     120540,     120540,     1484,     5936, 0x3635bc5f
0,     498000,     498000,        0,   102144, 0x903beb14
1,     122024,     122024,     1456,     5824, 0x0d7a81c7
0,     504000,     504000,        0,   102144, 0xb6c5f5c7
1,     123480,     123480,     1484,     5936, 0x26179764
0,     510000,     510000,        0,   102144, 0xaa813725
1,     124964,     124964,     1456,     5824, 0xa0b2454f
0,     516000,     516000,        0,   102144, 0x014a84a0
1,     126420,     126420,     1484,     5936, 0x91d24608
0,     522000,     522000,        0,   102144, 0xd286ece1
1,     127904,     127904,     1456,     5824, 0x6509b3e1
0,     528000,     528000,        0,   102144, 0x48b1c27d
1,     129360,     129360,     1484,     5936, 0xa0e3c9fc
0,     534000,     534000,        0,   102144, 0xa611ef42
1,     130844,     130844,     1456,     5824, 0x18682a2f
0,     540000,     540000,        0,   102144, 0x98627584
1,     132300,     132300,     1484,     5936, 0x89cea4ff
0,     546000,     546000,        0,   102144, 0x43de7c75
1,     133784,     133784,     1456,     5824, 0x7dd22b85
0,     552000,     552000,        0,   102144, 0xa9e22c68
1,     135240,     135240,     1484,     5936, 0x8b2eeb8d
0,     558000,     558000,        0,   102144, 0x84ac34d4
1,     136724,     136724,     1456,     5824, 0x0c21af82
0,     564000,     564000,        0,   102144, 0x6abd00ba
1,     138180,     138180,     1484,     5936, 0x9c5a748d
0,     570000,     570000,        0,   102144, 0x5d11066e
1,     139664,     139664,     1456,     5824, 0x1dc72c5c
0,     576000,     576000,        0,   102144, 0xb6b083aa
1,     141120,     141120,     1484,     5936, 0xe6129383
0,     582000,     582000,        0,   102144, 0x5d152a11
1,     142604,     142604,     1456,     5824, 0x0a44312a
0,     588000,     588000,        0,   102144, 0x0c0aec67
1,     144060,     144060,     1484,     5936, 0x7ed30640
0,     594000,     594000,        0,   102144, 0xa248bd10
1,     145544,     145544,     1456,     5824, 0xede15f25
0,     600000,     600000,        0,   102144, 0x4e6c12cc
1,     147000,     147000,     1484,     5936, 0x0096d0f3
0,     606000,     606000,        0,   102144, 0xca1d6753
1,     148484,     148484,     1456,     5824, 0x13764b4b
0,     612000,     612000,        0,   102144, 0x116310c3
1,     149940,     149940,     1484,     5936, 0xd4608756
0,     618000,     618000,        0,   102144, 0x16903cd0
1,     151424,     151424,     1456,     5824, 0x254b5f2a
0,     624000,     624000,        0,   102144, 0x239adfed
1,     152880,     152880,     1484,     5936, 0x7705b830
0,     630000,     630000,        0,   102144, 0x0970ce49
1,     154364,     154364,     1456,     5824, 0x64a63d78
0,     636000,     636000,        0,   102144, 0xb628adc1
1,     155820,     155820,     1484,     5936, 0xc02d81a6
0,     642000,     642000,        0,   102144, 0x473613f7
1,     157304,     157304,     1456,     5824, 0xd239e55e
0,     648000,     648000,        0,   102144, 0x3eef3987
1,     158760,     158760,     1484,     5936, 0x8018cd3a
0,     654000,     654000,        0,   102144, 0x935b99ca
1,     160244,     160244,     1456,     5824, 0xf86b8a98
0,     660000,     660000,        0,   102144, 0xb9f4d6ee
1,     161700,     161700,     1484,     5936, 0x2a0078bc
0,     666000,     666000,        0,   102144, 0xac811656
1,     163184,     163184,     1456,     5824, 0x058d4e1b
0,     672000,     672000,        0,   102144, 0xd1f84af0
1,     164640,     164640,     1484,     5936, 0xbc718309
0,     678000,     678000,        0,   102144, 0xf2fd25f4
1,     166124,     166124,     1456,     5824, 0xaf6c29e5
0,     684000,     684000,        0,   102144, 0x935bbed9
1,     167580,     167580,     1484,     5936, 0x80df004d
0,     690000,     690000,        0,   102144, 0x8c8c3e53
1,     169064,     169064,     1456,     5824, 0xeca5aa57
0,     696000,     696000,        0,   102144, 0x24afc20f
1,     170520,     170520,     1484,     5936, 0xb793a8f8
0,     702000,     702000,        0,   102144, 0xad20a451
1,     172004,     172004,     1456,     5824, 0x70fa6aff
0,     708000,     708000,        0,   102144, 0xd1a0df13
1,     173460,     173460,     1484,     5936, 0xda8d4cc6
0,     714000,     714000,        0,   102144, 0xb0ee53f8
1,     174944,     174944,     1456,     5824, 0xa70088eb
0,     720000,     720000,        0,   102144, 0x08cdb591
1,     176400,     176400,     1484,     5936, 0x1c0b0aab
0,     726000,     726000,        0,   102144, 0x89b985b0
1,     177884,     177884,     1456,     5824, 0x234d2436
0,     732000,     732000,        0,   102144, 0xdd27d51f
1,     179340,     179340,     1484,     5936, 0xf79d731e
0,     738000,     738000,        0,   102144, 0xa783fce0
1,     180824,     180824,     1456,     5824, 0x5a4e454a
0,     744000,     744000,        0,   102144, 0xfe5602e8
1,     182280,     182280,     1484,     5936, 0xccf6d042
0,     750000,     750000,        0,   102144, 0xfb989934
1,     183764,     183764,     1456,     5824, 0x4e524d14
0,     756000,     756000,        0,   102144, 0xf857eb2b
1,     185220,     185220,     1484,     5936, 0xf8f2fcc3
0,     762000,     762000,        0,   102144, 0x987a7098
1,     186704,     186704,     1456,     5824, 0x08f12491
0,     768000,     768000,        0,   102144, 0xbc749f42
1,     188160,     188160,     1484,     5936, 0x506e0a42
0,     774000,     774000,        0,   102144, 0x221e48a6
1,     189644,     189644,     1456,     5824, 0x7cf05049
0,     780000,     780000,        0,   102144, 0x4c4b5da2
1,     191100,     191100,     1484,     5936, 0xdeb9d295
0,     786000,     786000,        0,   102144, 0x32140027
1,     192584,     192584,     1456,     5824, 0x758ef642
0,     792000,     792000,        0,   102144, 0xbeb4bf18
1,     194040,     194040,     1484,     5936, 0x91903980
0,     798000,     798000,        0,   102144, 0x523012e5
